<svg width="29" height="20" viewBox="0 0 29 20" fill="none" xmlns="http://www.w3.org/2000/svg">
<path d="M1 14.3182C1 14.8705 1.44772 15.3182 2 15.3182L12.9495 15.3182C13.2147 15.3182 13.4691 15.2128 13.6566 15.0253C13.8441 14.8378 13.9495 14.5834 13.9495 14.3182C13.9495 12.601 13.2673 10.9541 12.0531 9.73984C11.601 9.28779 11.089 8.90948 10.5357 8.61266C11.3744 7.80794 11.8965 6.6758 11.8965 5.42172C11.8965 2.97967 9.91679 1 7.47475 1C5.0327 1 3.05303 2.97967 3.05303 5.42172C3.05303 6.6758 3.57511 7.80794 4.41378 8.61266C3.86049 8.90948 3.34847 9.28779 2.89641 9.73984C1.68216 10.9541 1 12.601 1 14.3182Z" fill="white" stroke="#001529" stroke-width="2" stroke-linecap="round" stroke-linejoin="round"/>
<path d="M14.6855 14.3182C14.6855 14.8705 15.1333 15.3182 15.6855 15.3182L26.635 15.3182C26.9003 15.3182 27.1546 15.2128 27.3421 15.0253C27.5297 14.8378 27.635 14.5834 27.635 14.3182C27.635 12.601 26.9529 10.9541 25.7386 9.73984C25.2866 9.28779 24.7746 8.90948 24.2213 8.61266C25.0599 7.80794 25.582 6.6758 25.582 5.42172C25.582 2.97967 23.6023 1 21.1603 1C18.7182 1 16.7386 2.97967 16.7386 5.42172C16.7386 6.6758 17.2607 7.80794 18.0993 8.61266C17.546 8.90948 17.034 9.28779 16.582 9.73984C15.3677 10.9541 14.6855 12.601 14.6855 14.3182Z" fill="white" stroke="#001529" stroke-width="2" stroke-linecap="round" stroke-linejoin="round"/>
<path d="M7.84375 17.0555C7.84375 17.6078 8.29147 18.0555 8.84375 18.0555L19.7932 18.0555C20.0585 18.0555 20.3128 17.9501 20.5004 17.7626C20.6879 17.5751 20.7932 17.3207 20.7932 17.0555C20.7932 15.3383 20.1111 13.6914 18.8968 12.4771C18.4448 12.0251 17.9328 11.6468 17.3795 11.35C18.2181 10.5452 18.7402 9.4131 18.7402 8.15902C18.7402 5.71697 16.7605 3.7373 14.3185 3.7373C11.8765 3.7373 9.89678 5.71697 9.89678 8.15902C9.89678 9.4131 10.4189 10.5452 11.2575 11.35C10.7042 11.6468 10.1922 12.0251 9.74016 12.4771C8.52591 13.6914 7.84375 15.3383 7.84375 17.0555Z" fill="white" stroke="#001529" stroke-width="2" stroke-linecap="round" stroke-linejoin="round"/>
</svg>
