<svg width="19" height="19" viewBox="0 0 19 19" fill="none" xmlns="http://www.w3.org/2000/svg">
    <circle cx="9.5" cy="9.5" r="8.75" transform="matrix(1 0 0 -1 0 19)" stroke="white" stroke-width="1.5"/>
    <circle cx="1.5" cy="1.5" r="1.5" transform="matrix(1 0 0 -1 8 11)" fill="white"/>
    <path d="M8.75 5.25C8.75 4.83579 9.08579 4.5 9.5 4.5C9.91421 4.5 10.25 4.83579 10.25 5.25V8.5H8.75V5.25Z" fill="white"/>
    <path d="M2.25 8.75C2.66421 8.75 3 9.08579 3 9.5C3 9.91421 2.66421 10.25 2.25 10.25L1 10.25L1 8.75L2.25 8.75Z" fill="white"/>
    <path d="M16.75 10.25C16.3358 10.25 16 9.91421 16 9.5C16 9.08579 16.3358 8.75 16.75 8.75L18 8.75L18 10.25L16.75 10.25Z" fill="white"/>
    <path d="M8.75 16.75C8.75 16.3358 9.08579 16 9.5 16C9.91421 16 10.25 16.3358 10.25 16.75L10.25 18L8.75 18L8.75 16.75Z" fill="white"/>
    <path d="M10.25 2.25C10.25 2.66421 9.91421 3 9.5 3C9.08579 3 8.75 2.66421 8.75 2.25L8.75 1L10.25 1L10.25 2.25Z" fill="white"/>
<path d="M14.1269 13.0659C14.4198 13.3588 14.4198 13.8336 14.1269 14.1265C13.834 14.4194 13.3591 14.4194 13.0662 14.1265L9.00037 10.0607L10.061 9L14.1269 13.0659Z" fill="white"/>
</svg>